<svg id="Layer_1" data-name="Layer 1" xmlns="http://www.w3.org/2000/svg" viewBox="0 0 28.59 28.59"><defs><style>.cls-1{fill:#666;}</style></defs><title>get_help</title><path class="cls-1" d="M14.3,0h0A14.3,14.3,0,0,0,7.81,27a14.18,14.18,0,0,0,6.44,1.55h.05A14.24,14.24,0,0,0,27,20.82a14.47,14.47,0,0,0,1.57-6.52A14.31,14.31,0,0,0,14.3,0ZM2.89,19.89l-.14-.31A12.78,12.78,0,0,1,2.54,9.47l.13-.32L6.75,12.1l0,.18a7.78,7.78,0,0,0,.09,4.37l.06.17ZM9.24,2.64a12.81,12.81,0,0,1,9.93-.08l.32.14L16.55,6.76l-.18,0a8.11,8.11,0,0,0-4.15,0l-.18,0-3.12-4Zm10.39,23.2A12.87,12.87,0,0,1,14.31,27h-.05a12.45,12.45,0,0,1-4.55-.85L9.38,26l3-4.1.18,0a9,9,0,0,0,1.8.2,7.66,7.66,0,0,0,2.33-.36l.18-.05,3.1,3.94Zm-2.84-5.78a6.14,6.14,0,0,1-2.5.5h0a6,6,0,0,1-2-.32l-.18-.08A6.24,6.24,0,0,1,8,14.28a6,6,0,0,1,.39-2.22A6.24,6.24,0,0,1,14.27,8h0a6.29,6.29,0,0,1,2.5,12ZM25.93,9.19A12.65,12.65,0,0,1,27,14.3a12.33,12.33,0,0,1-.86,4.61l-.13.33-4.1-2.95,0-.18a7.81,7.81,0,0,0-.07-3.93L21.82,12l4-3.15Z"/></svg>