<svg id="Layer_1" data-name="Layer 1" xmlns="http://www.w3.org/2000/svg" viewBox="0 0 26.82 26.82"><defs><style>.cls-1{fill:#fff;}</style></defs><title>Artboard 14</title><path class="cls-1" d="M13.41,26.8A13.39,13.39,0,0,1,3.94,4,13.39,13.39,0,0,1,22.87,4l-.34.37L22.86,4A13.37,13.37,0,0,1,13.41,26.8ZM7.16,24.12a12.62,12.62,0,0,0,6.24,1.67,12.24,12.24,0,0,0,6.5-1.86l-4-4a6.5,6.5,0,0,1-2.47.47,7.16,7.16,0,0,1-2.19-.35ZM2.86,7a12.35,12.35,0,0,0-.13,12.69l4-4.09a6.94,6.94,0,0,1,.1-4.63ZM22.22,9l-2.16,2.18a6.5,6.5,0,0,1,.37,2.19,7.19,7.19,0,0,1-.31,2.06l4.07,4.06a12.5,12.5,0,0,0-.1-12.35ZM13.41,7.59a5.84,5.84,0,1,0,5.83,5.84A5.84,5.84,0,0,0,13.41,7.59Zm0-1.2a7.1,7.1,0,0,1,2.18.35l4-4.05A12.66,12.66,0,0,0,13.41,1,12.4,12.4,0,0,0,7.24,2.69l4.09,4a6.55,6.55,0,0,1,2.07-.33Z"/><path class="cls-1" d="M13.41.05A13.26,13.26,0,0,1,22.85,4V4l-.35.32,0,0h0l0,0L22.87,4a13.37,13.37,0,0,1,0,18.88l0,0a13.23,13.23,0,0,1-9.4,3.87h0A13.36,13.36,0,0,1,4,4,13.28,13.28,0,0,1,13.4.05h0M11.32,6.73a7.23,7.23,0,0,1,2.08-.32h0a7.26,7.26,0,0,1,2.18.35L19.64,2.7A12.33,12.33,0,0,0,13.41,1h0A12.25,12.25,0,0,0,7.23,2.67l4.09,4.06M2.71,19.66l4.06-4.08a7,7,0,0,1,.1-4.64l-4-4a12.42,12.42,0,0,0-.14,12.74m21.46-.12a12.4,12.4,0,0,0-.08-12.4L22.21,9h0L20,11.21a6.95,6.95,0,0,1,.05,4.26l4.08,4.07m-10.76-.26a5.86,5.86,0,1,0-5.86-5.85,5.86,5.86,0,0,0,5.86,5.85m0,1.12a7.14,7.14,0,0,1-2.2-.36L7.15,24.11a12.34,12.34,0,0,0,6.25,1.7h0A12.35,12.35,0,0,0,19.92,24l-4-4a7.13,7.13,0,0,1-2.49.46m0-20.4h0A13.41,13.41,0,0,0,3.92,22.89a13.41,13.41,0,0,0,18.93,0l0,0A13.4,13.4,0,0,0,22.91,4h0A13.33,13.33,0,0,0,13.41,0ZM7.31,2.68a12.26,12.26,0,0,1,12.25,0l-4,4a6.88,6.88,0,0,0-4.24,0l-4-4ZM2.72,19.58A12.33,12.33,0,0,1,2.86,7l4,3.95a7.1,7.1,0,0,0-.1,4.62l-4,4ZM22.28,9l1.8-1.8a12.35,12.35,0,0,1,.08,12.24l-4-4a7.06,7.06,0,0,0,0-4.23l2.15-2.16,0,0ZM13.41,19.23a5.81,5.81,0,1,1,5.81-5.8,5.81,5.81,0,0,1-5.81,5.8Zm0,1.22A6.89,6.89,0,0,0,15.89,20l3.95,4a12.33,12.33,0,0,1-12.61.15l4-4a7.21,7.21,0,0,0,2.19.35Z"/></svg>