<?xml version="1.0" encoding="utf-8"?>
<!-- Generator: Adobe Illustrator 26.5.0, SVG Export Plug-In . SVG Version: 6.00 Build 0)  -->
<svg version="1.1" id="Layer_1" xmlns="http://www.w3.org/2000/svg" xmlns:xlink="http://www.w3.org/1999/xlink" x="0px" y="0px"
	 viewBox="0 0 65.1 78.2" style="enable-background:new 0 0 65.1 78.2;" xml:space="preserve">
<style type="text/css">
	.st0{fill:#FFFFFF;}
</style>
<g>
	<path class="st0" d="M21.2,0H4.9C2.2,0,0,2.2,0,4.9v68.4c0,2.7,2.2,4.9,4.9,4.9l0,0h16.3c2.7,0,4.9-2.2,4.9-4.9V4.9
		C26.1,2.2,23.9,0,21.2,0z"/>
	<path class="st0" d="M60.2,0H44c-2.7,0-4.9,2.2-4.9,4.9v68.4c0,2.7,2.2,4.9,4.9,4.9l0,0h16.3c2.7,0,4.9-2.2,4.9-4.9V4.9
		C65.1,2.2,62.9,0,60.2,0z"/>
</g>
</svg>
