<?xml version="1.0" encoding="utf-8"?>
<!-- Generator: Adobe Illustrator 27.4.1, SVG Export Plug-In . SVG Version: 6.00 Build 0)  -->
<svg version="1.1" id="Layer_1" xmlns="http://www.w3.org/2000/svg" xmlns:xlink="http://www.w3.org/1999/xlink" x="0px" y="0px"
	 viewBox="0 0 20.5 19.4" style="enable-background:new 0 0 20.5 19.4;" xml:space="preserve">
<style type="text/css">
	.st0{fill:#3793D1;}
</style>
<path class="st0" d="M17.7,5.3l-1.2-1.2c-0.3-0.2-0.7-0.2-0.9,0l-7.4,7.4c-0.3,0.2-0.7,0.2-0.9,0L4.8,9C4.6,8.8,4.2,8.8,3.9,9
	l-1.2,1.2c-0.3,0.2-0.3,0.6,0,0.9c0,0,0,0,0,0L5.6,14l1,1c0.6,0.6,1.6,0.6,2.2,0l1-1l0,0l7.9-7.9C17.9,5.9,17.9,5.6,17.7,5.3z"/>
</svg>
