<?xml version="1.0" encoding="utf-8"?>
<!-- Generator: Adobe Illustrator 27.3.1, SVG Export Plug-In . SVG Version: 6.00 Build 0)  -->
<svg version="1.1" id="Layer_1" xmlns="http://www.w3.org/2000/svg" xmlns:xlink="http://www.w3.org/1999/xlink" x="0px" y="0px"
	 viewBox="0 0 14 14.1" style="enable-background:new 0 0 14 14.1;" xml:space="preserve">
<style type="text/css">
	.st0{fill:#939393;}
</style>
<g>
	<path class="st0" d="M13.1,1.1l-0.5-0.4c-1.2-1-3-0.9-4,0.2l0,0L7.2,2.5C7.1,2.7,7,3,7,3.2c0,0.3,0.1,0.5,0.3,0.7L7.5,4
		c0.2,0.2,0.4,0.2,0.7,0.2h0.1c0.3,0,0.5-0.1,0.7-0.3l1.4-1.5c0.3-0.3,0.7-0.3,1-0.1l0.5,0.4C12,2.8,12.1,3,12.1,3.2
		S12,3.6,11.9,3.7l-3,3.4c-0.4,0.2-0.7,0.3-1,0.2C7.5,7,7,7.1,6.6,7.5l0,0C6.3,7.9,6.3,8.6,6.7,9c0.1,0,0.2,0.1,0.2,0.1
		c0.4,0.2,0.9,0.3,1.3,0.3l0,0c0.8,0,1.6-0.4,2.1-1l3-3.4C14.4,3.9,14.2,2.2,13.1,1.1z"/>
	<path class="st0" d="M6.6,10c-0.4-0.4-1-0.3-1.4,0.1l-1.4,1.6c-0.3,0.3-0.7,0.3-1,0.1l-0.5-0.4c-0.1-0.1-0.2-0.3-0.2-0.5
		s0.1-0.4,0.2-0.5l3-3.4c0.2-0.2,0.5-0.3,0.8-0.2c0.5,0.2,1,0.1,1.3-0.3C7.7,6.3,7.8,6,7.7,5.7c0-0.3-0.2-0.6-0.5-0.7
		C6.8,4.7,6.3,4.6,5.8,4.5c-0.8,0-1.6,0.4-2.1,1l-3,3.4c-1,1.2-0.9,3,0.2,4l0.5,0.4C1.9,13.8,2.6,14,3.3,14l0,0c0.8,0,1.6-0.3,2.1-1
		l1.4-1.6C7,11.2,7.1,10.9,7,10.7C7,10.4,6.9,10.2,6.6,10L6.6,10z"/>
</g>
</svg>
