<?xml version="1.0" encoding="utf-8"?>
<!-- Generator: Adobe Illustrator 26.5.0, SVG Export Plug-In . SVG Version: 6.00 Build 0)  -->
<svg version="1.1" id="Layer_1" xmlns="http://www.w3.org/2000/svg" xmlns:xlink="http://www.w3.org/1999/xlink" x="0px" y="0px"
	 viewBox="0 0 387.8 176.9" style="enable-background:new 0 0 387.8 176.9;" xml:space="preserve">
<style type="text/css">
	.st0{fill:#F2F2F2;}
	.st1{fill:#00ACDD;}
	.st2{fill:#494949;}
	.st3{fill:#353535;}
	.st4{fill:#0A9DBF;}
	.st5{enable-background:new    ;}
	.st6{fill:#E5E5E5;}
</style>
<g>
	<ellipse class="st0" cx="301.3" cy="172.3" rx="86.4" ry="4.6"/>
	<ellipse class="st0" cx="86.4" cy="172.3" rx="86.4" ry="4.6"/>
	<path class="st1" d="M357.1,142.2c38.6-38.7,41.1-100.5,5.6-142.1L214.9,147.8C256.5,183.3,318.4,180.9,357.1,142.2z M360.5,109.2
		l-35.4,35.4c-1.5,1.4-3.8,1.3-5.2-0.2c-1.3-1.4-1.3-3.6,0-5.1l35.4-35.4c1.4-1.4,3.8-1.4,5.2,0C362,105.4,362,107.7,360.5,109.2
		L360.5,109.2z M283.3,102.7l35.4-35.4c1.5-1.4,3.8-1.3,5.2,0.2c1.3,1.4,1.3,3.6,0,5.1L288.5,108c-1.5,1.4-3.8,1.3-5.2-0.2
		C282,106.4,282,104.2,283.3,102.7z M284.7,135.8l67.1-67c1.9-1.9,4.9-1.9,6.8,0s1.9,4.9,0,6.8l-67.1,67.1c-1.9,1.9-4.9,1.9-6.8,0
		S282.8,137.7,284.7,135.8L284.7,135.8z"/>
	<path class="st2" d="M30.7,142.2c38.7,38.6,100.6,41.1,142.1,5.6L25.1,0.1C-10.4,41.7-8,103.6,30.7,142.2z M63.7,145.7l-35.4-35.4
		c-1.4-1.4-1.4-3.8,0-5.2s3.8-1.4,5.2,0l0,0l35.4,35.4c1.4,1.5,1.3,3.8-0.2,5.2C67.3,147,65.1,147,63.7,145.7L63.7,145.7z
		 M70.1,68.5l35.4,35.4c1.4,1.5,1.3,3.9-0.3,5.2c-1.4,1.3-3.6,1.3-5,0L64.9,73.7c-1.5-1.4-1.6-3.7-0.2-5.2s3.7-1.6,5.2-0.2
		C70,68.4,70.1,68.4,70.1,68.5z M37.1,69.9l67.1,67.1c1.9,1.9,1.9,4.9,0,6.8c-1.9,1.9-4.9,1.9-6.8,0L30.3,76.7
		c-1.9-1.9-1.9-4.9,0-6.8S35.2,68,37.1,69.9L37.1,69.9L37.1,69.9z"/>
	<ellipse transform="matrix(0.7071 -0.7071 0.7071 0.7071 -23.3375 91.6864)" class="st3" cx="99" cy="74" rx="5.8" ry="104.4"/>
	
		<ellipse transform="matrix(0.7071 -0.7071 0.7071 0.7071 32.3002 225.8537)" class="st4" cx="288.8" cy="73.9" rx="104.4" ry="5.8"/>
	<g class="st5">
		<path class="st6" d="M210.8,47.5c0-9.4-7.7-15.9-20.9-15.9c-11.1,0-19.1,3.6-24.8,10.5l-6.9-5.2c7-8.6,17.8-13.5,32.4-13.5
			c18.2,0,29.9,8.7,29.9,22.6c0,22.2-23.8,23.3-23.8,41.9h-9.6C187,66.5,210.8,64.5,210.8,47.5z M185.1,109.1c0-3.8,3-6.6,6.8-6.6
			c3.9,0,6.9,2.9,6.9,6.6c0,3.6-3,6.8-6.9,6.8C188,115.9,185.1,112.8,185.1,109.1z"/>
	</g>
</g>
</svg>
