<?xml version="1.0" encoding="utf-8"?>
<!-- Generator: Adobe Illustrator 26.0.3, SVG Export Plug-In . SVG Version: 6.00 Build 0)  -->
<svg version="1.1" id="Layer_1" xmlns="http://www.w3.org/2000/svg" xmlns:xlink="http://www.w3.org/1999/xlink" x="0px" y="0px"
	 viewBox="0 0 86.9 96.8" style="enable-background:new 0 0 86.9 96.8;" xml:space="preserve">
<style type="text/css">
	.st0{fill:#CECECE;}
</style>
<g>
	<path class="st0" d="M14.1,39.1c1.9,0,3.7-0.7,5.1-2.1l7.2,3.6c0,0.3-0.1,0.6-0.1,0.9c-0.1,4.1,3,7.5,7.1,7.6s7.5-3,7.6-7.1
		c0-0.2,0-0.4,0-0.5c0-1.1-0.3-2.2-0.7-3.1l9.8-9.7c3.6,1.8,7.9,0.3,9.7-3.3c0.8-1.7,1-3.7,0.4-5.5l8.5-6.4c1.2,0.8,2.6,1.2,4.1,1.2
		c4,0,7.3-3.3,7.3-7.3c0-4-3.3-7.3-7.3-7.3c-4,0-7.3,3.3-7.3,7.3c0,0.7,0.1,1.5,0.4,2.2l-8.5,6.4c-1.2-0.8-2.6-1.2-4.1-1.2
		c-4,0-7.3,3.3-7.3,7.3c0,1.1,0.3,2.2,0.7,3.1L36.8,35c-2.7-1.3-6-0.8-8.2,1.3l-7.2-3.6c0.1-0.3,0.1-0.6,0.1-0.9
		c0-4-3.3-7.3-7.4-7.3c-4,0-7.3,3.3-7.3,7.4C6.8,35.9,10.1,39.2,14.1,39.1z"/>
	<path class="st0" d="M84.3,91.7h-2.7V37.8c0-1.4-1.1-2.5-2.6-2.5l0,0H68.9c-1.4,0-2.6,1.1-2.6,2.5c0,0,0,0,0,0v53.8h-5.1V53.1
		c0-1.4-1.1-2.5-2.5-2.5l0,0H48.5c-1.4,0-2.5,1.1-2.5,2.5l0,0v38.6h-5.1V73.5c0-1.4-1.1-2.6-2.5-2.6h0H28.1c-1.4,0-2.5,1.1-2.5,2.6
		l0,0v18.2h-5.1V63.3c0-1.4-1.1-2.5-2.5-2.5c0,0,0,0,0,0H7.8c-1.4,0-2.5,1.1-2.5,2.5v28.4H2.5c-1.4,0-2.5,1.1-2.5,2.6
		c0,1.4,1.1,2.5,2.5,2.5h81.8c1.4,0,2.5-1.1,2.5-2.6C86.9,92.8,85.8,91.7,84.3,91.7z"/>
</g>
</svg>
