<svg id="Layer_1" data-name="Layer 1" xmlns="http://www.w3.org/2000/svg" viewBox="0 0 18.52 18.57"><defs><style>.cls-1{fill:#bcbcbc;stroke:#bcbcbc;stroke-miterlimit:10;stroke-width:0.5px;}</style></defs><title>iconArtboard 28</title><path class="cls-1" d="M12.06,10.88,9.88,9.25V5.93a.6.6,0,1,0-1.2,0V9.55a.6.6,0,0,0,.24.49l2.41,1.81a.62.62,0,0,0,.36.12.6.6,0,0,0,.49-.24A.62.62,0,0,0,12.06,10.88Z"/><path class="cls-1" d="M9.28,1.71a7.8,7.8,0,1,0,7.8,7.79A7.81,7.81,0,0,0,9.28,1.71Zm0,14.38A6.59,6.59,0,1,1,15.87,9.5,6.6,6.6,0,0,1,9.28,16.09Z"/></svg>