<?xml version="1.0" encoding="utf-8"?>
<!-- Generator: Adobe Illustrator 26.5.0, SVG Export Plug-In . SVG Version: 6.00 Build 0)  -->
<svg version="1.1" id="Layer_1" xmlns="http://www.w3.org/2000/svg" xmlns:xlink="http://www.w3.org/1999/xlink" x="0px" y="0px"
	 viewBox="0 0 14.4 16" style="enable-background:new 0 0 14.4 16;" xml:space="preserve">
<style type="text/css">
	.st0{fill:#6B6B6B;}
</style>
<path class="st0" d="M10.8,0H2C0.9,0,0,0.9,0,2v12.1c0,1.1,0.9,2,2,1.9h10.4c1.1,0,2-0.9,2-1.9V3.6L10.8,0z M12.4,14.7H2
	c-0.3,0-0.6-0.3-0.6-0.6V2c0-0.3,0.3-0.6,0.6-0.6h8.1V3c0,0.7,0.6,1.2,1.2,1.3h1.5V14C13,14.3,12.7,14.6,12.4,14.7
	C12.4,14.6,12.4,14.7,12.4,14.7z"/>
<path class="st0" d="M5.1,8.5c1.4,0,2.5-1.1,2.5-2.5c0-1.4-1.1-2.5-2.5-2.5S2.7,4.7,2.7,6l0,0C2.7,7.4,3.8,8.5,5.1,8.5z"/>
<path class="st0" d="M11.4,7.9c-0.2-0.1-0.5-0.2-0.7-0.1l-7.5,3c-0.3,0.1-0.5,0.5-0.5,0.8v0.8c0,0.4,0.3,0.7,0.7,0.7c0,0,0,0,0,0H11
	c0.4,0,0.7-0.3,0.7-0.7c0,0,0,0,0,0v-4C11.7,8.2,11.6,8,11.4,7.9z"/>
</svg>
