<?xml version="1.0" encoding="utf-8"?>
<!-- Generator: Adobe Illustrator 26.0.3, SVG Export Plug-In . SVG Version: 6.00 Build 0)  -->
<svg version="1.1" id="Layer_1" xmlns="http://www.w3.org/2000/svg" xmlns:xlink="http://www.w3.org/1999/xlink" x="0px" y="0px"
	 viewBox="0 0 78.8 78.9" style="enable-background:new 0 0 78.8 78.9;" xml:space="preserve">
<style type="text/css">
	.st0{fill:#CECECE;}
</style>
<path class="st0" d="M78.8,39.4C78.8,17.7,61.2,0,39.4,0C17.7,0,0,17.6,0,39.4c0,7,1.9,13.9,5.4,19.9l0,0
	c3.8,6.5,9.4,11.8,16.1,15.2l0,0c5.5,2.8,11.7,4.3,17.9,4.3c14.8,0,28.3-8.3,35.1-21.4l0,0C77.4,51.8,78.8,45.7,78.8,39.4z
	 M8.8,53.4C5,45,4.8,35.3,8.3,26.7l9.9,7.1c-0.5,1.9-0.7,3.8-0.7,5.7c0,2.2,0.3,4.4,1,6.5l-6.7,5.3L8.8,53.4z M34.2,54.8L34.2,54.8
	c-4.4-1.5-7.9-4.7-9.8-9c-0.9-2-1.3-4.2-1.3-6.4c0-2,0.3-3.9,1-5.8l0,0c1.7-4.3,5.1-7.7,9.4-9.4c1.9-0.7,3.8-1.1,5.8-1.1
	c9,0,16.3,7.2,16.3,16.2c0,0,0,0.1,0,0.1c0,6.5-3.9,12.3-9.8,14.9l0,0c-2,0.9-4.2,1.3-6.4,1.3C37.7,55.7,35.9,55.4,34.2,54.8
	L34.2,54.8z M70.2,25.9c1.9,4.3,2.8,8.9,2.8,13.5c0,4.2-0.8,8.3-2.3,12.2l-9.9-7.2c0.9-3.6,0.8-7.4-0.2-11l8.7-6.8L70.2,25.9z
	 M39.4,5.8c4.4,0,8.8,0.9,12.9,2.6l-7.1,9.8c-3.8-1-7.8-1-11.6,0L26,8.6C30.3,6.7,34.8,5.8,39.4,5.8z M39.4,73.1
	c-4.2,0-8.3-0.8-12.1-2.3l7.2-9.9c1.6,0.4,3.3,0.6,4.9,0.6c2.2,0,4.5-0.3,6.6-1l3.8,4.8l3.7,4.7C49.1,72,44.3,73.1,39.4,73.1z"/>
</svg>
