<?xml version="1.0" encoding="utf-8"?>
<!-- Generator: Adobe Illustrator 27.2.0, SVG Export Plug-In . SVG Version: 6.00 Build 0)  -->
<svg version="1.1" id="Layer_1" xmlns="http://www.w3.org/2000/svg" xmlns:xlink="http://www.w3.org/1999/xlink" x="0px" y="0px"
	 viewBox="0 0 68.3 39.3" style="enable-background:new 0 0 68.3 39.3;" xml:space="preserve">
<style type="text/css">
	.st0{fill:#FFFFFF;}
</style>
<g>
	<g id="Layer_1_00000021821332797154406790000015642323688104071818_">
		<path class="st0" d="M50.1,23v6.6c0,0.8-0.5,1.6-1.3,2l-10.1,5c-1.1,0.6-2.1,1.3-3,2.1s-2.3,0.8-3.2,0c-0.9-0.9-1.9-1.6-3-2.1
			l-10.1-5c-0.8-0.4-1.2-1.2-1.3-2V23l14.1,4c1.2,0.4,2.5,0.4,3.8,0L50.1,23z"/>
		<path class="st0" d="M59.2,20.3V34c0,1.3-1,2.3-2.3,2.3s-2.3-1-2.3-2.3V21.7L59.2,20.3z"/>
		<path class="st0" d="M33.5,22.6L1.6,13.5c-1.2-0.4-1.9-1.6-1.5-2.8C0.3,10,0.9,9.4,1.6,9.2l31.9-9.1c0.4-0.1,0.8-0.1,1.2,0l32,9
			c1.2,0.4,1.9,1.6,1.5,2.8c-0.2,0.7-0.8,1.3-1.5,1.5l-31.9,9.1C34.4,22.7,33.9,22.7,33.5,22.6z"/>
	</g>
</g>
</svg>
