<?xml version="1.0" encoding="utf-8"?>
<!-- Generator: Adobe Illustrator 26.0.3, SVG Export Plug-In . SVG Version: 6.00 Build 0)  -->
<svg version="1.1" id="Layer_1" xmlns="http://www.w3.org/2000/svg" xmlns:xlink="http://www.w3.org/1999/xlink" x="0px" y="0px"
	 viewBox="0 0 124.5 71.8" style="enable-background:new 0 0 124.5 71.8;" xml:space="preserve">
<style type="text/css">
	.st0{fill:#FFFFFF;}
</style>
<g>
	<path class="st0" d="M91.3,42v11.9c0,1.6-0.9,3-2.3,3.7l-18.3,9.2c-2,1-3.9,2.3-5.6,3.9c-1.6,1.5-4.1,1.5-5.7,0
		c-1.6-1.6-3.5-2.9-5.5-3.9l-18.3-9.2c-1.4-0.7-2.3-2.1-2.3-3.7V42l25.6,7.3c2.2,0.6,4.6,0.6,6.8,0L91.3,42z"/>
	<path class="st0" d="M107.9,37.2v25c-0.1,2.3-2.1,4.1-4.3,3.9c-2.1-0.1-3.8-1.8-3.9-3.9V39.6L107.9,37.2z"/>
	<path class="st0" d="M61.1,41.3L3,24.7c-2.2-0.6-3.5-2.9-2.9-5.1c0.4-1.4,1.5-2.5,2.9-2.9L61.1,0.2c0.7-0.2,1.5-0.2,2.3,0
		l58.1,16.6c2.2,0.6,3.5,2.9,2.9,5.1c-0.4,1.4-1.5,2.5-2.9,2.9l-58,16.6C62.6,41.5,61.9,41.5,61.1,41.3z"/>
</g>
</svg>
