<?xml version="1.0" encoding="utf-8"?>
<!-- Generator: Adobe Illustrator 26.0.3, SVG Export Plug-In . SVG Version: 6.00 Build 0)  -->
<svg version="1.1" id="Layer_1" xmlns="http://www.w3.org/2000/svg" xmlns:xlink="http://www.w3.org/1999/xlink" x="0px" y="0px"
	 viewBox="0 0 111.6 85.5" style="enable-background:new 0 0 111.6 85.5;" xml:space="preserve">
<style type="text/css">
	.st0{fill:#7EDB4D;}
	.st1{fill:#FFFFFF;}
</style>
<g>
	<path class="st0" d="M81.8,52.4v10.7c0,1.4-0.8,2.7-2.1,3.3l-16.5,8.2c-1.8,0.9-3.5,2.1-5,3.5c-1.4,1.4-3.7,1.4-5.1,0
		c-1.5-1.4-3.2-2.6-5-3.5l-16.4-8.2c-1.3-0.6-2.1-1.9-2.1-3.3V52.4l23,6.6c2,0.6,4.1,0.6,6.1,0L81.8,52.4z"/>
	<path class="st0" d="M96.7,48.1v22.4c0,2.1-1.7,3.7-3.7,3.7s-3.7-1.7-3.7-3.7V50.3L96.7,48.1z"/>
	<path class="st0" d="M54.8,51.8L2.7,36.9c-2-0.6-3.1-2.6-2.5-4.6c0.4-1.2,1.3-2.2,2.5-2.5l52.1-14.9c0.7-0.2,1.3-0.2,2,0l52.1,14.9
		c2,0.6,3.1,2.6,2.5,4.6c-0.4,1.2-1.3,2.2-2.5,2.5l-52,14.9C56.2,52,55.4,52,54.8,51.8z"/>
	<path class="st1" d="M21.8-6.4l81.5,81.5c0.6,0.6,0.6,1.5,0,2.1L92.7,87.9c-0.6,0.6-1.5,0.6-2.1,0L9,6.4C8.4,5.8,8.4,4.9,9,4.3
		L19.7-6.4C20.3-7,21.3-7,21.8-6.4z"/>
	<path class="st0" d="M21,1l79,79c1.3,1.3,1.3,3.3,0,4.6l0,0c-1.3,1.3-3.3,1.3-4.6,0l-79-79c-1.3-1.3-1.3-3.3,0-4.6l0,0
		C17.7-0.3,19.7-0.3,21,1z"/>
</g>
</svg>
