<?xml version="1.0" encoding="utf-8"?>
<!-- Generator: Adobe Illustrator 26.0.3, SVG Export Plug-In . SVG Version: 6.00 Build 0)  -->
<svg version="1.1" id="Layer_1" xmlns="http://www.w3.org/2000/svg" xmlns:xlink="http://www.w3.org/1999/xlink" x="0px" y="0px"
	 viewBox="0 0 46.4 22.3" style="enable-background:new 0 0 46.4 22.3;" xml:space="preserve">
<style type="text/css">
	.st0{fill:#AAAAAA;}
</style>
<g>
	<path class="st0" d="M33.8,0h-4.7c-0.8,0-1.4,0.6-1.4,1.4v19.5c0,0.8,0.6,1.4,1.4,1.4h4.7c0.8,0,1.4-0.6,1.4-1.4V1.4
		C35.2,0.6,34.6,0,33.8,0z"/>
	<path class="st0" d="M45,0h-4.7c-0.8,0-1.4,0.6-1.4,1.4v19.5c0,0.8,0.6,1.4,1.4,1.4H45c0.8,0,1.4-0.6,1.4-1.4c0,0,0,0,0,0V1.4
		C46.4,0.6,45.8,0,45,0C45,0,45,0,45,0z"/>
	<path class="st0" d="M3.6,0.5C1.6-0.7,0,0.3,0,2.6v17.1C0,22,1.6,23,3.6,21.8l15-8.6c2-1.1,2-3,0-4.2L3.6,0.5z"/>
</g>
</svg>
