<svg id="Layer_1" data-name="Layer 1" xmlns="http://www.w3.org/2000/svg" viewBox="0 0 35.77 36.38"><defs><style>.cls-1{fill:#fff;}</style></defs><title>iconArtboard 21</title><path class="cls-1" d="M31.68,16.71a1.18,1.18,0,0,0-.23-.35l-3.22-3.22a1.07,1.07,0,1,0-1.52,1.52L28.1,16h-6a1.08,1.08,0,0,0,0,2.15h6l-1.39,1.39a1.07,1.07,0,0,0,0,1.52,1.06,1.06,0,0,0,.76.31,1.07,1.07,0,0,0,.76-.31l3.22-3.22a1.18,1.18,0,0,0,.23-.35A1.06,1.06,0,0,0,31.68,16.71Z"/><path class="cls-1" d="M24.25,20.34a1.07,1.07,0,0,0-1.07,1.07v5.36H18.89V9.61a1.08,1.08,0,0,0-.77-1L14.39,7.46h8.79v5.37a1.07,1.07,0,0,0,2.14,0V6.39a1.07,1.07,0,0,0-1.07-1.07H7.08L7,5.34l-.14,0a1.07,1.07,0,0,0-.31.13l-.08,0s0,0,0,0a1.3,1.3,0,0,0-.28.34.32.32,0,0,0,0,.09A1.06,1.06,0,0,0,6,6.23s0,.07,0,.1a.14.14,0,0,0,0,.06V27.85a1.07,1.07,0,0,0,.86,1L17.6,31a.76.76,0,0,0,.21,0A1.1,1.1,0,0,0,18.89,30V28.92h5.36a1.07,1.07,0,0,0,1.07-1.07V21.41A1.07,1.07,0,0,0,24.25,20.34Z"/></svg>