<svg id="Layer_1" data-name="Layer 1" xmlns="http://www.w3.org/2000/svg" viewBox="0 0 48.46 48.9"><defs><style>.cls-1{fill:#707070;}</style></defs><title>iconArtboard 69</title><g id="Page-1"><path id="Shape" class="cls-1" d="M15.53,42.07l.65-.18A1.17,1.17,0,0,0,17,40.44L9.57,13.86a1.5,1.5,0,0,0-.7-.88,1.44,1.44,0,0,0-1.11-.13l-.09,0a1.48,1.48,0,0,0-1,1.81l7.43,26.58a1.17,1.17,0,0,0,1.45.81Z"/><path class="cls-1" d="M41.68,23.5a28.42,28.42,0,0,1-6.47-4.45.57.57,0,0,1-.16-.59A83.34,83.34,0,0,0,37.18,7.4c.08-.63-.26-.81-.61-.38-6.92,8.28-18.9-1.52-26,6a3.07,3.07,0,0,1,.2.5l4.82,17.26c7.14-7.44,19.07,2.3,26-6,.36-.43.42-1.21.14-1.33Z"/></g></svg>