<svg id="Layer_1" data-name="Layer 1" xmlns="http://www.w3.org/2000/svg" viewBox="0 0 407.49 195.97"><defs><style>.cls-1{fill:#f2f2f2;}.cls-2{fill:#00acdd;}.cls-3{fill:#494949;}.cls-4{fill:#353535;}.cls-5{fill:#0a9dbf;}.cls-6{font-size:130.05px;fill:#e5e5e5;font-family:Montserrat-SemiBold, Montserrat;font-weight:600;}</style></defs><title>iconArtboard 10</title><ellipse class="cls-1" cx="311.02" cy="182.51" rx="86.4" ry="4.56"/><ellipse class="cls-1" cx="96.11" cy="182.51" rx="86.4" ry="4.56"/><path class="cls-2" d="M366.75,152.39a104.78,104.78,0,0,0,5.57-142.12L224.63,158A104.78,104.78,0,0,0,366.75,152.39Zm3.44-33-35.37,35.37a3.7,3.7,0,0,1-5.23-5.23L365,114.14a3.7,3.7,0,0,1,5.23,5.24ZM293,112.93l35.37-35.37a3.7,3.7,0,0,1,5.23,5.23l-35.37,35.37a3.7,3.7,0,0,1-5.23-5.23Zm1.4,33.1L361.47,79a4.79,4.79,0,1,1,6.78,6.78l-67.07,67.07A4.79,4.79,0,1,1,294.4,146Z"/><path class="cls-3" d="M40.38,152.45A104.79,104.79,0,0,0,182.51,158L34.81,10.33A104.77,104.77,0,0,0,40.38,152.45Zm33,3.44L38,120.52a3.7,3.7,0,0,1,5.24-5.23l35.37,35.37a3.7,3.7,0,0,1-5.23,5.23ZM79.84,78.7l35.38,35.37a3.71,3.71,0,0,1-5.24,5.24L74.61,83.93a3.7,3.7,0,1,1,5.23-5.23ZM46.75,80.1l67.06,67.07A4.79,4.79,0,1,1,107,154L40,86.88a4.79,4.79,0,1,1,6.78-6.78Z"/><ellipse class="cls-4" cx="108.66" cy="84.18" rx="5.76" ry="104.44" transform="translate(-27.7 101.49) rotate(-45)"/><ellipse class="cls-5" cx="298.47" cy="84.12" rx="104.44" ry="5.76" transform="translate(27.94 235.69) rotate(-45)"/><text class="cls-6" transform="translate(166.14 125.44)">?</text></svg>