<?xml version="1.0" encoding="utf-8"?>
<!-- Generator: Adobe Illustrator 27.0.0, SVG Export Plug-In . SVG Version: 6.00 Build 0)  -->
<svg version="1.1" id="Layer_1" xmlns="http://www.w3.org/2000/svg" xmlns:xlink="http://www.w3.org/1999/xlink" x="0px" y="0px"
	 viewBox="0 0 48.5 48.9" style="enable-background:new 0 0 48.5 48.9;" xml:space="preserve">
<style type="text/css">
	.st0{fill:#DB214E;}
</style>
<g id="Page-1">
	<path id="Shape" class="st0" d="M15.5,42.1l0.7-0.2c0.6-0.2,1-0.8,0.8-1.4c0,0,0,0,0,0L9.6,13.9c-0.1-0.4-0.4-0.7-0.7-0.9
		c-0.3-0.2-0.7-0.2-1.1-0.1H7.7c-0.8,0.2-1.2,1-1,1.8l7.4,26.6C14.3,41.9,14.9,42.2,15.5,42.1C15.5,42.1,15.5,42.1,15.5,42.1
		L15.5,42.1z"/>
	<path class="st0" d="M41.7,23.5c-2.4-1.2-4.5-2.7-6.5-4.5C35,18.9,35,18.7,35,18.5c1-3.6,1.7-7.3,2.1-11.1c0.1-0.6-0.3-0.8-0.6-0.4
		c-6.9,8.3-18.9-1.5-26,6c0.1,0.2,0.1,0.3,0.2,0.5l4.8,17.3c7.1-7.4,19.1,2.3,26-6C42,24.4,42,23.6,41.7,23.5L41.7,23.5z"/>
</g>
</svg>
