<svg id="Layer_1" data-name="Layer 1" xmlns="http://www.w3.org/2000/svg" viewBox="0 0 67.26 66.8"><defs><style>.cls-1{fill:#cecece;stroke:#fff;stroke-miterlimit:10;stroke-width:0.75px;}</style></defs><title>iconArtboard 71</title><path class="cls-1" d="M63.43,14.15V2.33l-61,61h61V58.83H57.85V56.6h5.58V52.13H55.61V49.89h7.82V44.31H57.85V42.08h5.58V37.61H55.61V35.37h7.82V29.79H57.85V27.55h5.58V23.09H55.61V20.85h7.82V16.38H57.85V14.15ZM52.26,51a1.12,1.12,0,0,1-1.12,1.12h-19a1.11,1.11,0,0,1-1-.69,1.12,1.12,0,0,1,.24-1.22l19-19A1.09,1.09,0,0,1,51.57,31a1.11,1.11,0,0,1,.69,1Z"/></svg>