<?xml version="1.0" encoding="utf-8"?>
<!-- Generator: Adobe Illustrator 26.5.0, SVG Export Plug-In . SVG Version: 6.00 Build 0)  -->
<svg version="1.1" id="Layer_1" xmlns="http://www.w3.org/2000/svg" xmlns:xlink="http://www.w3.org/1999/xlink" x="0px" y="0px"
	 viewBox="0 0 62.3 62.3" style="enable-background:new 0 0 62.3 62.3;" xml:space="preserve">
<style type="text/css">
	.st0{fill:#CECECE;stroke:#FFFFFF;stroke-width:0.75;stroke-miterlimit:10;}
</style>
<path class="st0" d="M61.9,12.7V0.9l-61,61h61v-4.5h-5.6v-2.2h5.6v-4.5h-7.8v-2.2h7.8v-5.6h-5.6v-2.2h5.6v-4.5h-7.8v-2.2h7.8v-5.6
	h-5.6v-2.2h5.6v-4.5h-7.8v-2.2h7.8V15h-5.6v-2.2H61.9z M50.7,49.6c0,0.6-0.5,1.1-1.1,1.1h-19c-0.4,0-0.8-0.3-1-0.7
	c-0.2-0.4-0.1-0.9,0.2-1.2l19-19c0.3-0.3,0.8-0.4,1.2-0.2c0.4,0.2,0.7,0.6,0.7,1V49.6z"/>
</svg>
