<?xml version="1.0" encoding="utf-8"?>
<!-- Generator: Adobe Illustrator 26.0.3, SVG Export Plug-In . SVG Version: 6.00 Build 0)  -->
<svg version="1.1" id="Layer_1" xmlns="http://www.w3.org/2000/svg" xmlns:xlink="http://www.w3.org/1999/xlink" x="0px" y="0px"
	 viewBox="0 0 23.5 24.2" style="enable-background:new 0 0 23.5 24.2;" xml:space="preserve">
<style type="text/css">
	.st0{fill:#AAAAAA;}
</style>
<path class="st0" d="M23.1,14.8L20.9,13c0.1-0.6,0.1-1.2,0-1.8l2.2-1.7c0.4-0.3,0.5-0.9,0.3-1.4l-2.3-4c-0.3-0.5-0.8-0.7-1.3-0.5
	l-2.6,1c-0.5-0.4-1-0.7-1.6-0.9l-0.4-2.8C15.1,0.4,14.6,0,14.1,0H9.4c-0.5,0-1,0.4-1.1,0.9L8,3.8C7.4,4,6.9,4.3,6.4,4.7l-2.6-1
	c-0.5-0.2-1.1,0-1.3,0.5l-2.3,4C-0.1,8.6,0,9.2,0.4,9.5l2.2,1.7c0,0.3-0.1,0.6-0.1,0.9s0,0.6,0.1,0.9l-2.2,1.7
	c-0.4,0.3-0.5,0.9-0.3,1.4l2.3,4c0.3,0.5,0.8,0.7,1.3,0.5l2.6-1c0.5,0.4,1,0.7,1.6,0.9l0.4,2.8c0.1,0.5,0.5,0.9,1.1,0.9h4.6
	c0.5,0,1-0.4,1.1-0.9l0.4-2.8c0.6-0.3,1.1-0.6,1.6-0.9l2.6,1.1c0.1,0,0.3,0.1,0.4,0.1c0.4,0,0.7-0.2,0.9-0.5l2.3-4
	C23.6,15.7,23.5,15.1,23.1,14.8z M11.8,16.1c-2.2,0-4-1.8-4-4s1.8-4,4-4s4,1.8,4,4S14,16.1,11.8,16.1z"/>
</svg>
