<?xml version="1.0" encoding="utf-8"?>
<!-- Generator: Adobe Illustrator 27.2.0, SVG Export Plug-In . SVG Version: 6.00 Build 0)  -->
<svg version="1.1" id="Layer_1" xmlns="http://www.w3.org/2000/svg" xmlns:xlink="http://www.w3.org/1999/xlink" x="0px" y="0px"
	 viewBox="0 0 265.9 81" style="enable-background:new 0 0 265.9 81;" xml:space="preserve">
<style type="text/css">
	.st0{fill:#FFFFFF;}
	.st1{fill:#3793D0;}
	.st2{fill:#888888;}
	.st3{font-family:'Montserrat-Regular';}
	.st4{font-size:7.1px;}
	.st5{fill:#494949;}
	.st6{fill:#00ACDD;}
</style>
<g>
	
		<image style="overflow:visible;opacity:0.35;enable-background:new    ;" width="82" height="82" xlink:href="F2582C6CD0D16A67.png"  transform="matrix(0.9878 0 0 0.9878 0 0)">
	</image>
	<ellipse class="st0" cx="40.5" cy="37.3" rx="25" ry="24.7"/>
	<path class="st1" d="M87.8,17c1.1,0.6,2,1.5,2.6,2.6c0.7,1.2,1,2.5,1,3.9c0,1.4-0.3,2.7-1,3.9c-0.6,1.1-1.5,2-2.6,2.6
		c-1.2,0.6-2.5,1-3.8,0.9c-1.8,0.1-3.5-0.6-4.7-1.9v7.1h-3.4V16.2h3.2v1.9c0.6-0.7,1.3-1.2,2.1-1.6C82.1,16.2,83,16,84,16
		C85.3,16,86.6,16.3,87.8,17z M86.7,26.8c0.8-0.9,1.3-2.1,1.2-3.3c0.1-1.2-0.4-2.4-1.2-3.3c-0.8-0.8-1.9-1.3-3.1-1.3
		c-0.8,0-1.5,0.2-2.2,0.6c-0.7,0.4-1.2,0.9-1.6,1.6c-0.4,0.7-0.6,1.6-0.6,2.4c0,0.8,0.2,1.7,0.6,2.4c0.4,0.7,0.9,1.2,1.6,1.6
		c0.7,0.4,1.4,0.6,2.2,0.6C84.7,28.1,85.9,27.6,86.7,26.8z"/>
	<path class="st1" d="M94.8,13.2c-0.4-0.4-0.6-0.9-0.6-1.5c0-0.6,0.2-1.1,0.6-1.5c0.4-0.4,1-0.6,1.6-0.6c0.6,0,1.1,0.2,1.5,0.6
		c0.4,0.4,0.6,0.9,0.6,1.4c0,0.6-0.2,1.1-0.6,1.5c-0.4,0.4-1,0.6-1.6,0.6C95.7,13.8,95.2,13.6,94.8,13.2z M94.6,16.2H98v14.6h-3.4
		V16.2z"/>
	<path class="st1" d="M102.5,10.5h3.4v20.3h-3.4V10.5z"/>
	<path class="st1" d="M113,30c-1.2-0.6-2.1-1.5-2.8-2.7c-0.7-1.2-1-2.5-1-3.9c0-1.4,0.3-2.7,1-3.9c0.7-1.1,1.6-2,2.8-2.7
		c2.5-1.3,5.5-1.3,8,0c1.2,0.6,2.1,1.5,2.8,2.6c0.7,1.2,1,2.5,1,3.9c0,1.4-0.3,2.7-1,3.9c-0.7,1.1-1.6,2.1-2.8,2.7
		C118.5,31.3,115.5,31.3,113,30z M120.1,26.8c0.8-0.9,1.3-2.1,1.2-3.3c0.1-2.4-1.7-4.5-4.1-4.6c-1.3-0.1-2.5,0.4-3.4,1.3
		c-0.8,0.9-1.3,2.1-1.2,3.3c-0.1,1.2,0.4,2.4,1.2,3.3C115.6,28.5,118.3,28.5,120.1,26.8z"/>
	<path class="st1" d="M136.8,30c-0.4,0.3-0.9,0.6-1.5,0.7c-0.6,0.2-1.2,0.2-1.8,0.2c-1.4,0.1-2.7-0.4-3.7-1.3
		c-0.9-1-1.4-2.3-1.3-3.7v-7H126v-2.8h2.4V13h3.4v3.3h3.9V19h-3.9v7c0,0.6,0.1,1.2,0.5,1.6c0.4,0.4,0.9,0.6,1.5,0.6
		c0.7,0,1.4-0.2,1.9-0.6L136.8,30z"/>
	<path class="st1" d="M211,58.2c-0.4,0.3-0.9,0.6-1.5,0.7c-0.6,0.2-1.2,0.3-1.8,0.2c-1.4,0.1-2.7-0.4-3.7-1.3
		c-0.9-1-1.4-2.3-1.3-3.7v-7h-2.4v-2.8h2.4v-3.3h3.4v3.3h3.9v2.8h-3.9v6.9c0,0.6,0.1,1.2,0.5,1.6c0.4,0.4,1,0.6,1.5,0.6
		c0.7,0,1.4-0.2,1.9-0.6L211,58.2z"/>
	<path class="st1" d="M227,52.8h-11.5c0.2,1,0.7,1.9,1.6,2.6c0.9,0.7,2,1,3.2,1c1.5,0.1,3-0.5,4-1.6l1.8,2.1
		c-0.7,0.8-1.5,1.4-2.5,1.8c-2.5,0.9-5.3,0.8-7.7-0.4c-1.2-0.6-2.2-1.5-2.8-2.7c-0.7-1.2-1-2.5-1-3.9c0-1.3,0.3-2.7,1-3.8
		c0.6-1.1,1.6-2,2.7-2.7c1.2-0.7,2.5-1,3.9-1c1.3,0,2.6,0.3,3.8,0.9c1.1,0.6,2,1.5,2.6,2.7c0.6,1.2,1,2.6,0.9,3.9
		C227.1,52,227,52.3,227,52.8z M216.9,47.9c-0.8,0.7-1.3,1.6-1.4,2.6h8.3c-0.2-2.1-2-3.6-4.1-3.6C218.6,46.9,217.7,47.3,216.9,47.9z
		"/>
	<path class="st1" d="M231.4,58.7c-1-0.2-1.9-0.6-2.7-1.2l1.3-2.6c0.7,0.5,1.5,0.8,2.4,1c0.9,0.3,1.8,0.4,2.7,0.4
		c2,0,3.1-0.5,3.1-1.6c0-0.5-0.3-0.9-0.8-1.1c-0.8-0.3-1.6-0.5-2.5-0.6c-1-0.1-2-0.3-2.9-0.6c-0.8-0.2-1.5-0.7-2-1.2
		c-0.6-0.7-0.9-1.6-0.8-2.5c0-1.3,0.6-2.6,1.7-3.3c1.4-0.9,3.1-1.3,4.7-1.2c1,0,2,0.1,3,0.3c0.9,0.2,1.7,0.5,2.4,0.9l-1.3,2.6
		c-1.3-0.7-2.7-1.1-4.2-1.1c-0.8,0-1.6,0.1-2.3,0.5c-0.5,0.2-0.8,0.7-0.8,1.2c0,0.5,0.3,1,0.8,1.2c0.8,0.3,1.7,0.5,2.6,0.6
		c1,0.1,1.9,0.4,2.9,0.6c0.7,0.2,1.4,0.6,1.9,1.2c0.6,0.7,0.9,1.5,0.8,2.4c0,1.3-0.7,2.6-1.8,3.3c-1.5,0.9-3.1,1.3-4.9,1.2
		C233.6,59.2,232.5,59,231.4,58.7z"/>
	<path class="st1" d="M253.2,58.2c-0.4,0.3-0.9,0.6-1.4,0.7c-0.6,0.2-1.2,0.3-1.8,0.2c-1.4,0.1-2.7-0.4-3.7-1.3
		c-0.9-1-1.4-2.3-1.3-3.7v-7h-2.4v-2.8h2.4v-3.3h3.4v3.3h3.9v2.8h-3.9v6.9c0,0.6,0.1,1.2,0.5,1.6c0.4,0.4,0.9,0.6,1.5,0.6
		c0.7,0,1.4-0.2,1.9-0.6L253.2,58.2z"/>
	<text transform="matrix(1 0 0 1 255.05 46.18)" class="st2 st3 st4">TM</text>
	<path class="st5" d="M86.4,45.8c1.2,1.2,1.8,2.9,1.7,4.7V59h-3.2v-1.7c-0.4,0.7-1.1,1.2-1.8,1.5c-0.9,0.3-1.8,0.5-2.8,0.5
		c-1,0-2-0.2-2.9-0.6c-0.8-0.3-1.5-0.9-1.9-1.6c-0.5-0.7-0.7-1.4-0.7-2.2c0-1.2,0.5-2.4,1.4-3.2c1.4-0.9,3-1.3,4.6-1.2h3.8v-0.2
		c0.1-0.9-0.3-1.7-0.9-2.3C82.9,47.3,82,47,81,47.1c-0.8,0-1.6,0.1-2.4,0.4c-0.7,0.2-1.4,0.6-2,1.1l-1.3-2.5C76,45.4,77,45,78,44.7
		c1.1-0.3,2.2-0.5,3.4-0.5C83.2,44.1,85,44.7,86.4,45.8z M83.2,56.1c0.7-0.4,1.2-1,1.4-1.7v-1.7h-3.5c-2,0-3,0.6-3,1.9
		c0,0.6,0.3,1.1,0.7,1.5c0.6,0.4,1.3,0.6,2.1,0.6C81.7,56.7,82.5,56.5,83.2,56.1z"/>
	<path class="st5" d="M104.3,45.2c1.1,0.6,2,1.5,2.6,2.6c1.3,2.5,1.3,5.4,0,7.8c-0.6,1.1-1.5,2-2.6,2.7c-1.2,0.6-2.5,1-3.8,0.9
		c-1.8,0.1-3.5-0.7-4.7-2v7.1h-3.4V44.4h3.3v1.9c0.6-0.7,1.3-1.2,2.1-1.6c0.9-0.3,1.8-0.5,2.8-0.4C101.9,44.2,103.2,44.5,104.3,45.2
		z M103.3,55c1.6-1.9,1.6-4.7,0-6.6c-0.8-0.8-1.9-1.3-3.1-1.3c-0.8,0-1.5,0.2-2.2,0.6c-0.7,0.4-1.2,0.9-1.6,1.6
		c-0.8,1.5-0.8,3.3,0,4.8c0.4,0.7,0.9,1.2,1.6,1.6c0.7,0.4,1.4,0.6,2.2,0.6C101.3,56.3,102.4,55.8,103.3,55z"/>
	<path class="st5" d="M120,58.2c-0.4,0.3-0.9,0.6-1.5,0.7c-0.6,0.2-1.2,0.3-1.8,0.2c-1.4,0.1-2.7-0.4-3.7-1.3
		c-0.9-1-1.4-2.3-1.3-3.7v-7h-2.4v-2.8h2.4v-3.3h3.4v3.3h3.9v2.8h-3.9v6.9c0,0.6,0.1,1.2,0.5,1.6c0.4,0.4,0.9,0.6,1.5,0.6
		c0.7,0,1.4-0.2,1.9-0.6L120,58.2z"/>
	<path class="st5" d="M122.9,41.4c-0.8-0.8-0.8-2-0.1-2.8c0,0,0,0,0,0l0.1-0.1c0.4-0.4,1-0.6,1.6-0.6c0.6,0,1.1,0.2,1.5,0.5
		c0.4,0.4,0.6,0.9,0.6,1.4c0,0.6-0.2,1.1-0.6,1.5c-0.4,0.4-1,0.6-1.6,0.6C123.9,42,123.4,41.8,122.9,41.4z M122.8,44.4h3.4V59h-3.4
		V44.4z"/>
	<path class="st5" d="M139.5,58.2c-0.4,0.3-0.9,0.6-1.5,0.7c-0.6,0.2-1.2,0.3-1.8,0.2c-1.4,0.1-2.7-0.4-3.7-1.3
		c-0.9-1-1.4-2.3-1.3-3.7v-7h-2.4v-2.8h2.4v-3.3h3.4v3.3h3.9v2.8h-3.9v6.9c0,0.6,0.1,1.2,0.5,1.6c0.4,0.4,0.9,0.6,1.5,0.6
		c0.7,0,1.4-0.2,1.9-0.6L139.5,58.2z"/>
	<path class="st5" d="M156.4,44.4V59h-3.2v-1.8c-0.6,0.7-1.3,1.2-2.1,1.5c-0.8,0.4-1.7,0.5-2.6,0.5c-3.2,0.3-6-2-6.3-5.2
		c0-0.4,0-0.8,0-1.3v-8.3h3.4v7.9c-0.1,1,0.2,2.1,0.9,2.9c0.7,0.7,1.6,1,2.5,1c1.1,0.1,2.2-0.4,2.9-1.1c0.8-0.9,1.2-2.1,1.1-3.3
		v-7.4H156.4z"/>
	<path class="st5" d="M175.2,38.7V59h-3.3v-1.9c-0.6,0.7-1.3,1.2-2.1,1.6c-0.9,0.4-1.8,0.5-2.8,0.5c-1.3,0-2.6-0.3-3.8-0.9
		c-1.1-0.6-2-1.5-2.6-2.6c-1.3-2.5-1.3-5.4,0-7.8c0.6-1.1,1.5-2,2.6-2.6c1.2-0.6,2.5-0.9,3.8-0.9c0.9,0,1.8,0.2,2.7,0.5
		c0.8,0.3,1.5,0.8,2.1,1.5v-7.5H175.2z M169.7,55.7c0.7-0.4,1.2-0.9,1.6-1.6c0.8-1.5,0.8-3.3,0-4.8c-0.4-0.7-0.9-1.2-1.6-1.6
		c-1.4-0.8-3-0.8-4.4,0c-0.7,0.4-1.2,0.9-1.6,1.6c-0.8,1.5-0.8,3.3,0,4.8c0.4,0.7,0.9,1.2,1.6,1.6C166.6,56.5,168.3,56.5,169.7,55.7
		z"/>
	<path class="st5" d="M193.3,52.8h-11.4c0.2,1,0.7,1.9,1.6,2.6c0.9,0.7,2,1,3.2,1c1.5,0.1,3-0.5,4-1.6l1.8,2.1
		c-0.7,0.8-1.5,1.4-2.5,1.8c-2.5,0.9-5.2,0.8-7.6-0.3c-1.2-0.6-2.2-1.6-2.9-2.7c-0.7-1.2-1-2.5-1-3.9c0-1.3,0.3-2.7,1-3.8
		c0.6-1.1,1.6-2,2.7-2.7c1.2-0.7,2.5-1,3.9-1c1.3,0,2.6,0.3,3.8,0.9c1.1,0.6,2,1.6,2.6,2.7c0.7,1.2,1,2.6,1,3.9
		C193.4,52,193.4,52.3,193.3,52.8z M183.2,47.9c-0.8,0.7-1.3,1.6-1.4,2.6h8.3c-0.1-1-0.6-1.9-1.3-2.6
		C187.2,46.6,184.9,46.6,183.2,47.9L183.2,47.9z"/>
	<path class="st6" d="M40.5,15.4c-11.7,0-21.4,9-22.3,20.6h44.6C61.9,24.4,52.2,15.4,40.5,15.4z M35,19.8h10.7
		c0.4,0,0.8,0.3,0.8,0.7c0,0.4-0.3,0.8-0.7,0.8H35c-0.4,0-0.8-0.3-0.8-0.7c0-0.4,0.3-0.8,0.7-0.9H35z M45.7,32.5H35
		c-0.4,0-0.8-0.3-0.8-0.7c0-0.4,0.3-0.8,0.7-0.9h10.8c0.4,0,0.8,0.3,0.8,0.7c0,0.4-0.3,0.8-0.7,0.8H45.7z M50.5,27.3H30.2
		c-0.6,0-1-0.5-1-1s0.5-1,1-1h20.2c0.6,0,1,0.5,1,1S51,27.3,50.5,27.3z"/>
	<path class="st5" d="M40.4,59.3c11.7,0,21.4-9,22.3-20.6H18C19,50.3,28.7,59.3,40.4,59.3z M45.9,54.8H35.2c-0.4,0-0.8-0.4-0.8-0.8
		c0-0.4,0.4-0.8,0.8-0.8h10.7c0.4,0,0.8,0.4,0.8,0.8C46.7,54.4,46.3,54.8,45.9,54.8z M35.2,42.2h10.7c0.4,0,0.8,0.4,0.8,0.8
		c0,0.4-0.4,0.8-0.8,0.8H35.2c-0.4,0-0.8-0.4-0.8-0.8C34.4,42.5,34.8,42.2,35.2,42.2z M30.4,47.4h20.3c0.6,0,1,0.4,1.1,0.9
		c0,0,0,0.1,0,0.1c0,0.6-0.4,1-0.9,1.1c0,0-0.1,0-0.1,0H30.4c-0.6,0-1-0.4-1.1-0.9c0,0,0-0.1,0-0.1c0-0.6,0.4-1,0.9-1.1
		c0,0,0.1,0,0.1,0H30.4L30.4,47.4z"/>
</g>
</svg>
