<?xml version="1.0" encoding="utf-8"?>
<!-- Generator: Adobe Illustrator 26.5.0, SVG Export Plug-In . SVG Version: 6.00 Build 0)  -->
<svg version="1.1" id="Layer_1" xmlns="http://www.w3.org/2000/svg" xmlns:xlink="http://www.w3.org/1999/xlink" x="0px" y="0px"
	 viewBox="0 0 510.2 112.4" style="enable-background:new 0 0 510.2 112.4;" xml:space="preserve">
<style type="text/css">
	.st0{fill:#00ACDD;}
	.st1{fill:#888888;}
	.st2{font-family:'Montserrat-Regular';}
	.st3{font-size:14.62px;}
	.st4{fill:#494949;}
</style>
<g>
	<path class="st0" d="M143.5,15c2.3,1.2,4.2,3.1,5.4,5.4c1.4,2.5,2.1,5.2,2,8.1c0,2.8-0.6,5.6-2,8.1c-1.3,2.3-3.1,4.2-5.4,5.4
		c-2.4,1.3-5.1,2-7.8,1.9c-3.6,0.2-7.2-1.3-9.6-4v14.5h-7v-41h6.7v3.9c1.1-1.4,2.6-2.5,4.3-3.2c1.8-0.7,3.7-1.1,5.7-1.1
		C138.4,13,141.1,13.6,143.5,15z M141.3,35.2c1.7-1.8,2.6-4.3,2.5-6.8c0.1-2.5-0.8-5-2.5-6.8c-1.7-1.7-4-2.7-6.4-2.6
		c-1.6,0-3.2,0.4-4.5,1.1c-1.4,0.8-2.5,1.9-3.2,3.3c-0.8,1.5-1.2,3.3-1.2,5c0,1.7,0.4,3.4,1.2,5c0.7,1.4,1.9,2.5,3.2,3.2
		c1.4,0.8,3,1.2,4.6,1.2C137.3,37.9,139.6,36.9,141.3,35.2z"/>
	<path class="st0" d="M157.9,7.2c-0.8-0.8-1.3-1.9-1.3-3c0-1.1,0.5-2.2,1.3-3c0.9-0.8,2-1.2,3.2-1.2c1.2,0,2.3,0.4,3.2,1.1
		c0.8,0.7,1.3,1.8,1.3,2.9c0,1.2-0.4,2.3-1.3,3.1c-0.9,0.8-2,1.3-3.2,1.3C159.9,8.4,158.8,8,157.9,7.2z M157.6,13.4h7v30.1h-7V13.4z
		"/>
	<path class="st0" d="M173.9,1.7h7v41.8h-7V1.7z"/>
	<path class="st0" d="M195.4,41.8c-2.4-1.3-4.4-3.2-5.7-5.5c-1.4-2.4-2.1-5.2-2.1-8c0-2.8,0.7-5.5,2.1-7.9c1.4-2.3,3.3-4.2,5.7-5.5
		c5.2-2.6,11.3-2.6,16.5,0c2.4,1.3,4.3,3.1,5.7,5.5c1.4,2.4,2.1,5.2,2.1,7.9c0,2.8-0.7,5.6-2.1,8c-1.4,2.3-3.3,4.2-5.7,5.5
		C206.7,44.5,200.6,44.5,195.4,41.8z M210,35.2c1.7-1.8,2.7-4.3,2.5-6.8c0.1-2.5-0.8-5-2.5-6.8c-3.6-3.5-9.2-3.5-12.8,0
		c-1.7,1.8-2.6,4.3-2.5,6.8c-0.1,2.5,0.8,5,2.5,6.8C200.8,38.7,206.5,38.7,210,35.2z"/>
	<path class="st0" d="M244.5,41.8c-0.9,0.7-1.9,1.2-3,1.5c-1.2,0.3-2.5,0.5-3.7,0.5c-3.3,0-5.9-0.9-7.7-2.6
		c-1.8-1.7-2.7-4.2-2.7-7.5V19.3h-4.9v-5.7h4.9V6.7h7v6.9h8v5.7h-8v14.3c-0.1,1.2,0.3,2.4,1.1,3.3c0.8,0.8,1.9,1.2,3.1,1.2
		c1.4,0,2.8-0.4,3.9-1.2L244.5,41.8z"/>
	<path class="st0" d="M397.2,99.8c-0.9,0.7-1.9,1.2-3,1.5c-1.2,0.3-2.5,0.5-3.7,0.5c-3.3,0-5.9-0.9-7.6-2.6s-2.7-4.2-2.7-7.5V77.3
		h-5v-5.6h5v-6.9h7v6.9h8v5.6h-8v14.3c-0.1,1.2,0.3,2.4,1.1,3.3c0.8,0.8,2,1.2,3.1,1.2c1.4,0.1,2.8-0.4,3.9-1.2L397.2,99.8z"/>
	<path class="st0" d="M430.1,88.7h-23.6c0.4,2.1,1.5,4,3.2,5.3c1.9,1.3,4.2,2,6.5,1.9c3.1,0.1,6-1.1,8.1-3.3l3.8,4.3
		c-1.4,1.6-3.1,2.9-5.1,3.7c-5.1,1.9-10.8,1.6-15.7-0.7c-2.4-1.2-4.5-3.1-5.8-5.5c-1.4-2.4-2.1-5.2-2-8c0-2.8,0.7-5.5,2-7.9
		c1.3-2.3,3.2-4.2,5.5-5.5c2.4-1.3,5.2-2,8-2c2.7,0,5.4,0.6,7.9,1.9c2.3,1.3,4.2,3.2,5.4,5.5c1.3,2.5,2,5.3,1.9,8.1
		C430.2,87.1,430.2,87.8,430.1,88.7z M409.3,78.7c-1.6,1.4-2.6,3.3-2.8,5.3h17c-0.5-4.3-4.2-7.5-8.5-7.3
		C413,76.7,410.9,77.4,409.3,78.7z"/>
	<path class="st0" d="M439.1,100.9c-2-0.5-3.9-1.3-5.6-2.4l2.7-5.3c1.5,1,3.1,1.7,4.9,2.1c1.8,0.5,3.7,0.8,5.6,0.8
		c4.2,0,6.3-1.1,6.3-3.3c0-1-0.6-1.9-1.6-2.2c-1.7-0.5-3.4-0.9-5.1-1.1c-2-0.3-4-0.7-6-1.3c-1.6-0.5-2.9-1.4-4-2.6
		c-1.2-1.4-1.8-3.2-1.7-5.1c-0.1-2.7,1.3-5.3,3.6-6.8c2.4-1.7,5.6-2.6,9.6-2.6c2.1,0,4.2,0.2,6.2,0.7c1.8,0.4,3.5,1,5.1,1.9
		l-2.7,5.3c-2.6-1.5-5.6-2.3-8.6-2.2c-1.6-0.1-3.2,0.2-4.7,0.9c-1,0.4-1.7,1.4-1.7,2.4c0,1.1,0.7,2.1,1.7,2.4
		c1.7,0.6,3.5,1.1,5.3,1.3c2,0.3,4,0.7,5.9,1.3c1.5,0.5,2.9,1.3,4,2.5c1.2,1.4,1.8,3.2,1.7,5c0,2.7-1.3,5.3-3.7,6.8
		c-2.4,1.7-5.8,2.5-10,2.5C443.8,101.9,441.4,101.6,439.1,100.9z"/>
	<path class="st0" d="M484,99.8c-0.9,0.7-1.9,1.2-3,1.5c-1.2,0.3-2.5,0.5-3.7,0.5c-3.3,0-5.9-0.9-7.6-2.6s-2.7-4.2-2.7-7.5V77.3h-5
		v-5.6h5v-6.9h7v6.9h8v5.6h-8v14.3c-0.1,1.2,0.3,2.4,1.1,3.3c0.8,0.8,1.9,1.2,3.1,1.2c1.4,0.1,2.8-0.4,3.9-1.2L484,99.8z"/>
	<text transform="matrix(1 0 0 1 487.88 75.1119)" class="st1 st2 st3">TM</text>
	<path class="st4" d="M140.7,74.3c2.3,2.1,3.5,5.3,3.5,9.6v17.6h-6.6v-3.7c-0.9,1.3-2.2,2.4-3.7,3c-1.8,0.7-3.8,1.1-5.8,1
		c-2,0-4-0.4-5.9-1.2c-1.6-0.7-2.9-1.8-3.9-3.2c-0.9-1.4-1.4-3-1.4-4.7c-0.1-2.5,1-4.9,3-6.5c2-1.6,5.2-2.4,9.5-2.4h7.8v-0.4
		c0.1-1.8-0.6-3.6-1.9-4.8c-1.6-1.2-3.6-1.8-5.6-1.7c-1.7,0-3.4,0.3-5,0.8c-1.5,0.5-2.9,1.2-4.1,2.2l-2.8-5.1
		c1.7-1.3,3.6-2.2,5.7-2.8c2.3-0.7,4.6-1,7-1C134.9,71.1,138.3,72.2,140.7,74.3z M134.2,95.5c1.3-0.8,2.4-2,2.9-3.5v-3.5h-7.3
		c-4,0-6.1,1.3-6.1,4c0,1.2,0.5,2.3,1.5,3c1.3,0.8,2.7,1.2,4.2,1.1C131.2,96.8,132.8,96.4,134.2,95.5z"/>
	<path class="st4" d="M177.7,73c2.3,1.3,4.2,3.1,5.4,5.4c2.6,5.1,2.6,11.1,0,16.1c-1.3,2.3-3.1,4.2-5.4,5.4c-2.4,1.3-5.1,2-7.9,1.9
		c-3.6,0.2-7.2-1.3-9.6-4v14.6h-7v-41h6.7v3.9c1.1-1.4,2.6-2.5,4.3-3.2c1.8-0.7,3.7-1.1,5.7-1.1C172.6,71.1,175.3,71.7,177.7,73z
		 M175.4,93.3c3.3-3.9,3.3-9.7,0-13.6c-1.7-1.7-4-2.7-6.4-2.6c-1.6,0-3.2,0.4-4.6,1.2c-1.4,0.8-2.5,1.9-3.2,3.3
		c-1.6,3.1-1.6,6.8,0,9.9c0.7,1.4,1.8,2.5,3.2,3.3c1.4,0.8,3,1.2,4.6,1.2C171.4,95.9,173.7,95,175.4,93.3z"/>
	<path class="st4" d="M209.8,99.8c-0.9,0.7-1.9,1.2-3,1.5c-1.2,0.3-2.5,0.5-3.7,0.5c-3.3,0-5.9-0.9-7.6-2.6s-2.7-4.2-2.7-7.5V77.3
		h-4.9v-5.6h4.9v-6.9h7v6.9h8.1v5.6h-8.1v14.3c-0.1,1.2,0.3,2.4,1.1,3.3c0.8,0.8,1.9,1.2,3.1,1.2c1.4,0.1,2.8-0.4,3.9-1.2
		L209.8,99.8z"/>
	<path class="st4" d="M215.9,65.3c-1.7-1.6-1.7-4.2-0.1-5.9c0,0,0.1-0.1,0.1-0.1c0.9-0.8,2-1.2,3.2-1.2c1.2,0,2.3,0.4,3.2,1.1
		c0.8,0.7,1.3,1.8,1.3,2.9c0,1.2-0.4,2.3-1.3,3.1c-0.9,0.8-2,1.3-3.2,1.3C217.9,66.5,216.8,66.1,215.9,65.3z M215.6,71.4h7v30h-7
		V71.4z"/>
	<path class="st4" d="M249.9,99.8c-0.9,0.7-1.9,1.2-3,1.5c-1.2,0.3-2.5,0.5-3.7,0.5c-3.3,0-5.9-0.9-7.7-2.6s-2.7-4.2-2.7-7.5V77.3
		h-4.9v-5.6h4.9v-6.9h7v6.9h8v5.6h-8v14.3c-0.1,1.2,0.3,2.4,1.1,3.3c0.8,0.8,1.9,1.2,3.1,1.2c1.4,0.1,2.8-0.4,3.9-1.2L249.9,99.8z"
		/>
	<path class="st4" d="M284.8,71.4v30h-6.7v-3.8c-1.1,1.4-2.6,2.4-4.2,3.1c-1.7,0.7-3.6,1.1-5.5,1.1c-4,0-7.2-1.1-9.5-3.3
		s-3.5-5.5-3.5-9.9V71.4h7v16.2c0,2.7,0.6,4.7,1.8,6c1.4,1.4,3.3,2.1,5.2,2c2.2,0.1,4.4-0.7,6-2.3c1.5-1.6,2.2-3.8,2.2-6.7V71.4
		H284.8z"/>
	<path class="st4" d="M323.5,59.7v41.7h-6.8v-3.9c-1.1,1.4-2.6,2.5-4.3,3.2c-1.8,0.7-3.7,1.1-5.7,1.1c-2.7,0-5.4-0.6-7.8-1.9
		c-2.3-1.3-4.2-3.1-5.4-5.4c-2.6-5.1-2.6-11.1,0-16.1c1.3-2.3,3.1-4.1,5.4-5.4c2.4-1.3,5.1-2,7.8-1.9c1.9,0,3.7,0.3,5.5,1
		c1.6,0.6,3.1,1.7,4.2,3V59.7H323.5z M312.2,94.7c1.4-0.8,2.5-1.9,3.2-3.3c1.6-3.1,1.6-6.8,0-9.9c-0.7-1.4-1.8-2.5-3.2-3.3
		c-2.8-1.5-6.3-1.5-9.1,0c-1.4,0.8-2.5,1.9-3.2,3.3c-1.6,3.1-1.6,6.8,0,9.9c0.7,1.4,1.9,2.5,3.2,3.3
		C305.9,96.3,309.3,96.3,312.2,94.7z"/>
	<path class="st4" d="M360.8,88.7h-23.6c0.3,2.1,1.5,4,3.2,5.3c1.9,1.3,4.2,2,6.5,1.9c3.1,0.1,6-1.1,8.2-3.3l3.8,4.3
		c-1.4,1.6-3.1,2.9-5.1,3.7c-5.1,1.9-10.8,1.6-15.7-0.7c-2.4-1.2-4.4-3.1-5.8-5.5c-1.4-2.4-2.1-5.2-2-8c0-2.8,0.7-5.5,2-7.9
		c1.3-2.3,3.2-4.2,5.5-5.5c2.5-1.3,5.2-2,8-2c2.7,0,5.4,0.6,7.9,1.9c2.3,1.3,4.2,3.2,5.4,5.5c1.3,2.5,2,5.3,2,8.1
		C360.9,87.1,360.9,87.8,360.8,88.7z M340,78.7c-1.6,1.4-2.6,3.3-2.8,5.3h17c-0.2-2-1.2-3.9-2.8-5.3c-1.6-1.4-3.6-2.1-5.7-2
		C343.7,76.7,341.6,77.4,340,78.7L340,78.7z"/>
	<path class="st0" d="M46.3,11.7c-24.1,0-44.1,18.5-46,42.5h91.9C90.3,30.2,70.4,11.7,46.3,11.7z M34.9,20.9h22
		c0.9-0.1,1.7,0.6,1.8,1.5c0.1,0.9-0.6,1.7-1.5,1.8c-0.1,0-0.2,0-0.3,0h-22c-0.9,0.1-1.7-0.6-1.8-1.5s0.6-1.7,1.5-1.8
		C34.8,20.9,34.9,20.9,34.9,20.9z M56.9,46.9h-22c-0.9,0.1-1.7-0.6-1.8-1.5c-0.1-0.9,0.6-1.7,1.5-1.8c0.1,0,0.2,0,0.3,0h22
		c0.9-0.1,1.7,0.6,1.8,1.5c0.1,0.9-0.6,1.7-1.5,1.8C57.1,46.9,57,46.9,56.9,46.9z M66.8,36.2H25.1c-1.2,0-2.1-0.9-2.1-2.1
		s0.9-2.1,2.1-2.1h41.7c1.2,0,2.1,0.9,2.1,2.1S68,36.2,66.8,36.2z"/>
	<path class="st4" d="M45.9,102c24.1,0,44.1-18.5,46-42.5H0C1.9,83.5,21.9,102,45.9,102z M57.3,92.8h-22c-0.9,0-1.6-0.7-1.6-1.6
		c0-0.9,0.7-1.6,1.6-1.6l0,0h22c0.9,0,1.6,0.7,1.6,1.6C59,92.1,58.2,92.8,57.3,92.8z M35.3,66.8h22c0.9,0,1.6,0.7,1.6,1.6
		c0,0.9-0.7,1.6-1.6,1.6h-22c-0.9,0-1.6-0.7-1.6-1.6C33.7,67.6,34.4,66.8,35.3,66.8L35.3,66.8z M25.4,77.6h41.7
		c1.2-0.1,2.2,0.8,2.2,2c0.1,1.2-0.8,2.2-2,2.2l0,0h-42c-1.2,0.1-2.2-0.8-2.2-2c-0.1-1.2,0.8-2.2,2-2.2l0,0H25.4z"/>
</g>
</svg>
