<svg id="Layer_1" data-name="Layer 1" xmlns="http://www.w3.org/2000/svg" viewBox="0 0 54 50"><defs><style>.cls-1{fill:#fff;}.cls-2{fill:#00acdd;}.cls-3{fill:#494949;}</style></defs><title>surepilot_socialmedia_Artboard 13</title><circle class="cls-1" cx="26.8" cy="25.25" r="21.57"/><path class="cls-2" d="M27,5.4A20.23,20.23,0,0,0,6.81,24H47.15A20.23,20.23,0,0,0,27,5.4Zm-5,4h9.66a.72.72,0,1,1,0,1.43H22a.72.72,0,1,1,0-1.43Zm9.66,11.43H22a.72.72,0,1,1,0-1.43h9.66a.72.72,0,1,1,0,1.43ZM36,16.14H17.67a.93.93,0,1,1,0-1.85H36a.93.93,0,1,1,0,1.85Z"/><path class="cls-3" d="M26.83,45.07A20.24,20.24,0,0,0,47,26.42H6.66A20.24,20.24,0,0,0,26.83,45.07Zm5-4H22.15a.72.72,0,1,1,0-1.43h9.66a.72.72,0,0,1,0,1.43ZM22.15,29.61h9.66a.72.72,0,0,1,0,1.43H22.15a.72.72,0,1,1,0-1.43Zm-4.33,4.71H36.14a.93.93,0,0,1,0,1.85H17.82a.93.93,0,1,1,0-1.85Z"/></svg>