<svg id="Layer_1" data-name="Layer 1" xmlns="http://www.w3.org/2000/svg" viewBox="0 0 527.57 118.42"><defs><style>.cls-1{fill:#00acdd;}.cls-2{font-size:14.62px;fill:#888;font-family:Montserrat-Medium, Montserrat;font-weight:500;}.cls-3{fill:#494949;}</style></defs><title>iconArtboard 3</title><path class="cls-1" d="M148.18,17.68a13.69,13.69,0,0,1,5.43,5.4,16,16,0,0,1,2,8.05,16.16,16.16,0,0,1-2,8.07,13.77,13.77,0,0,1-5.43,5.43,16,16,0,0,1-7.84,1.91,12.15,12.15,0,0,1-9.63-4V57.06h-7v-41h6.7V20a11,11,0,0,1,4.3-3.21,14.6,14.6,0,0,1,5.66-1.06A15.86,15.86,0,0,1,148.18,17.68Zm-2.25,20.25a9.36,9.36,0,0,0,2.51-6.8,9.36,9.36,0,0,0-2.51-6.81,8.47,8.47,0,0,0-6.38-2.59A9,9,0,0,0,135,22.88a8.4,8.4,0,0,0-3.21,3.29,10.19,10.19,0,0,0-1.18,5,10.18,10.18,0,0,0,1.18,4.95A8.4,8.4,0,0,0,135,39.37a9,9,0,0,0,4.56,1.15A8.47,8.47,0,0,0,145.93,37.93Z"/><path class="cls-1" d="M162.62,9.94a3.92,3.92,0,0,1-1.3-3,3.94,3.94,0,0,1,1.3-3,4.53,4.53,0,0,1,3.2-1.21A4.64,4.64,0,0,1,169,3.87a3.7,3.7,0,0,1,1.29,2.89,4.28,4.28,0,0,1-1.26,3.13,4.4,4.4,0,0,1-3.24,1.26A4.49,4.49,0,0,1,162.62,9.94Zm-.34,6.16h7V46.15h-7Z"/><path class="cls-1" d="M178.54,4.4h7V46.15h-7Z"/><path class="cls-1" d="M200.09,44.57a14.37,14.37,0,0,1-5.72-5.48,15.6,15.6,0,0,1-2.05-8,15.45,15.45,0,0,1,2.05-7.94,14.53,14.53,0,0,1,5.72-5.46,18.3,18.3,0,0,1,16.48,0,14.5,14.5,0,0,1,5.71,5.46,15.35,15.35,0,0,1,2.06,7.94,15.51,15.51,0,0,1-2.06,8,14.35,14.35,0,0,1-5.71,5.48,18.22,18.22,0,0,1-16.48,0Zm14.62-6.64a9.29,9.29,0,0,0,2.54-6.8,9.3,9.3,0,0,0-2.54-6.81,9.2,9.2,0,0,0-12.8,0,9.36,9.36,0,0,0-2.5,6.81,9.35,9.35,0,0,0,2.5,6.8,9.2,9.2,0,0,0,12.8,0Z"/><path class="cls-1" d="M249.15,44.52a8.45,8.45,0,0,1-3,1.52,13.84,13.84,0,0,1-3.74.5q-5,0-7.66-2.59T232,36.41V22h-4.95V16.33H232V9.46h7v6.87h8V22h-8v14.3a4.71,4.71,0,0,0,1.07,3.34,4,4,0,0,0,3.09,1.16,6.21,6.21,0,0,0,3.94-1.24Z"/><path class="cls-1" d="M401.89,102.57a8.21,8.21,0,0,1-3,1.52,13.46,13.46,0,0,1-3.74.51c-3.3,0-5.85-.87-7.65-2.59s-2.7-4.24-2.7-7.54V80h-5V74.38h5V67.52h7v6.86h8.05V80h-8.05V94.3a4.78,4.78,0,0,0,1.07,3.35A4,4,0,0,0,396,98.8a6.14,6.14,0,0,0,3.93-1.24Z"/><path class="cls-1" d="M434.81,91.43H411.23a8.18,8.18,0,0,0,3.24,5.26,10.56,10.56,0,0,0,6.5,1.94,10.9,10.9,0,0,0,8.15-3.26l3.77,4.33a12.73,12.73,0,0,1-5.12,3.66,20.25,20.25,0,0,1-15.69-.73,14.18,14.18,0,0,1-5.83-5.49,15.47,15.47,0,0,1-2.05-8,15.76,15.76,0,0,1,2-7.91,14.17,14.17,0,0,1,5.54-5.48,16.2,16.2,0,0,1,8-2,15.83,15.83,0,0,1,7.85,1.94,13.83,13.83,0,0,1,5.4,5.46,16.57,16.57,0,0,1,1.94,8.13C434.92,89.84,434.88,90.53,434.81,91.43ZM414,81.44a8.39,8.39,0,0,0-2.84,5.32h17.05a8.21,8.21,0,0,0-8.5-7.31A8.47,8.47,0,0,0,414,81.44Z"/><path class="cls-1" d="M443.81,103.64a17.9,17.9,0,0,1-5.57-2.42l2.7-5.34A17.2,17.2,0,0,0,445.81,98a20,20,0,0,0,5.6.82q6.3,0,6.3-3.32a2.23,2.23,0,0,0-1.61-2.2A28.31,28.31,0,0,0,451,92.16a40.56,40.56,0,0,1-6-1.29,9.25,9.25,0,0,1-4.05-2.56,7.13,7.13,0,0,1-1.72-5.09,8,8,0,0,1,3.57-6.84q3.57-2.56,9.65-2.56a27.78,27.78,0,0,1,6.19.7,17.29,17.29,0,0,1,5.06,1.89l-2.7,5.34a16.65,16.65,0,0,0-8.6-2.25,9.52,9.52,0,0,0-4.7.93A2.78,2.78,0,0,0,446,82.88a2.46,2.46,0,0,0,1.72,2.39A27,27,0,0,0,453,86.59a40.92,40.92,0,0,1,5.9,1.3,9.21,9.21,0,0,1,4,2.47,6.91,6.91,0,0,1,1.66,5,7.81,7.81,0,0,1-3.66,6.75q-3.65,2.53-10,2.54A26.8,26.8,0,0,1,443.81,103.64Z"/><path class="cls-1" d="M488.71,102.57a8.29,8.29,0,0,1-3,1.52,13.46,13.46,0,0,1-3.74.51c-3.3,0-5.85-.87-7.65-2.59s-2.71-4.24-2.71-7.54V80h-5V74.38h5V67.52h7v6.86h8V80h-8V94.3a4.73,4.73,0,0,0,1.07,3.35,4,4,0,0,0,3.09,1.15,6.15,6.15,0,0,0,3.94-1.24Z"/><text class="cls-2" transform="translate(492.55 77.84)">TM</text><path class="cls-3" d="M145.32,77q3.51,3.18,3.51,9.59V104.2h-6.64v-3.65a8.23,8.23,0,0,1-3.68,3,14.51,14.51,0,0,1-5.77,1,14.13,14.13,0,0,1-5.91-1.16,9.1,9.1,0,0,1-3.91-3.2,8.15,8.15,0,0,1-1.38-4.65,8,8,0,0,1,3-6.49c2-1.64,5.17-2.45,9.49-2.45h7.76V86.2a6.17,6.17,0,0,0-1.88-4.84,8.15,8.15,0,0,0-5.6-1.69,16,16,0,0,0-5,.79,12.36,12.36,0,0,0-4.14,2.19l-2.75-5.12a16.79,16.79,0,0,1,5.68-2.75,25.19,25.19,0,0,1,7-1Q141.81,73.82,145.32,77ZM138.9,98.27a6.58,6.58,0,0,0,2.9-3.46V91.32h-7.26q-6.07,0-6.07,4a3.58,3.58,0,0,0,1.51,3,7,7,0,0,0,4.22,1.13A9.14,9.14,0,0,0,138.9,98.27Z"/><path class="cls-3" d="M182.34,75.73a14,14,0,0,1,5.43,5.4,17.47,17.47,0,0,1,0,16.12,13.77,13.77,0,0,1-5.43,5.43,15.93,15.93,0,0,1-7.85,1.92,12.13,12.13,0,0,1-9.62-4v14.57h-7v-41h6.7V78.1a10.83,10.83,0,0,1,4.3-3.21,14.63,14.63,0,0,1,5.66-1.07A16,16,0,0,1,182.34,75.73ZM180.09,96a10.53,10.53,0,0,0,0-13.62,8.53,8.53,0,0,0-6.39-2.59,9,9,0,0,0-4.56,1.16,8.24,8.24,0,0,0-3.2,3.29,10.89,10.89,0,0,0,0,9.9,8.24,8.24,0,0,0,3.2,3.29,9,9,0,0,0,4.56,1.16A8.53,8.53,0,0,0,180.09,96Z"/><path class="cls-3" d="M214.49,102.57a8.21,8.21,0,0,1-3,1.52,13.46,13.46,0,0,1-3.74.51c-3.3,0-5.85-.87-7.65-2.59s-2.7-4.24-2.7-7.54V80h-4.95V74.38h4.95V67.52h7v6.86h8.05V80h-8.05V94.3a4.78,4.78,0,0,0,1.07,3.35,4,4,0,0,0,3.09,1.15,6.15,6.15,0,0,0,3.94-1.24Z"/><path class="cls-3" d="M220.62,68a4.16,4.16,0,0,1,0-6,4.53,4.53,0,0,1,3.21-1.21A4.63,4.63,0,0,1,227,61.92a3.73,3.73,0,0,1,1.29,2.9,4.24,4.24,0,0,1-1.26,3.12,4.42,4.42,0,0,1-3.24,1.27A4.57,4.57,0,0,1,220.62,68Zm-.33,6.16h7v30h-7Z"/><path class="cls-3" d="M254.61,102.57a8.29,8.29,0,0,1-3,1.52,13.46,13.46,0,0,1-3.74.51c-3.31,0-5.86-.87-7.66-2.59s-2.7-4.24-2.7-7.54V80h-4.95V74.38h4.95V67.52h7v6.86h8V80h-8V94.3a4.73,4.73,0,0,0,1.07,3.35,4,4,0,0,0,3.09,1.15,6.15,6.15,0,0,0,3.94-1.24Z"/><path class="cls-3" d="M289.49,74.16v30H282.8v-3.82a11.28,11.28,0,0,1-4.22,3.12,13.62,13.62,0,0,1-5.46,1.1q-6,0-9.48-3.35t-3.46-9.93V74.16h7v16.2q0,4,1.83,6a6.7,6.7,0,0,0,5.2,2,7.89,7.89,0,0,0,6-2.34c1.48-1.55,2.22-3.8,2.22-6.72V74.16Z"/><path class="cls-3" d="M328.14,62.45V104.2h-6.75v-3.88a10.83,10.83,0,0,1-4.3,3.21,14.6,14.6,0,0,1-5.66,1.07,15.78,15.78,0,0,1-7.79-1.92,13.64,13.64,0,0,1-5.43-5.43,17.47,17.47,0,0,1,0-16.12,13.82,13.82,0,0,1,5.43-5.4,15.88,15.88,0,0,1,7.79-1.91,14.38,14.38,0,0,1,5.46,1,11,11,0,0,1,4.22,3V62.45Zm-11.3,35a8.31,8.31,0,0,0,3.2-3.29,11,11,0,0,0,0-9.9,8.31,8.31,0,0,0-3.2-3.29,9.54,9.54,0,0,0-9.12,0,8.33,8.33,0,0,0-3.21,3.29,11,11,0,0,0,0,9.9,8.33,8.33,0,0,0,3.21,3.29,9.54,9.54,0,0,0,9.12,0Z"/><path class="cls-3" d="M365.5,91.43H341.93a8.17,8.17,0,0,0,3.23,5.26,10.58,10.58,0,0,0,6.5,1.94,10.94,10.94,0,0,0,8.16-3.26l3.77,4.33a12.8,12.8,0,0,1-5.12,3.66,20.28,20.28,0,0,1-15.7-.73A14.22,14.22,0,0,1,337,97.14a15.47,15.47,0,0,1-2.05-8,15.75,15.75,0,0,1,2-7.91,14.17,14.17,0,0,1,5.54-5.48,16.23,16.23,0,0,1,8-2,15.78,15.78,0,0,1,7.85,1.94,13.77,13.77,0,0,1,5.4,5.46,16.46,16.46,0,0,1,1.95,8.13C365.62,89.84,365.58,90.53,365.5,91.43Zm-20.79-10a8.48,8.48,0,0,0-2.84,5.32h17.05a8.3,8.3,0,0,0-2.76-5.29,8.39,8.39,0,0,0-5.74-2A8.49,8.49,0,0,0,344.71,81.44Z"/><path class="cls-1" d="M51,14.4A46.09,46.09,0,0,0,5,56.88H96.9A46.1,46.1,0,0,0,51,14.4ZM39.62,23.6h22a1.63,1.63,0,1,1,0,3.25h-22a1.63,1.63,0,1,1,0-3.25Zm22,26h-22a1.63,1.63,0,1,1,0-3.25h22a1.63,1.63,0,1,1,0,3.25Zm9.86-10.7H29.76a2.11,2.11,0,1,1,0-4.22H71.48a2.11,2.11,0,0,1,0,4.22Z"/><path class="cls-3" d="M50.61,104.77a46.09,46.09,0,0,0,46-42.48H4.67A46.1,46.1,0,0,0,50.61,104.77ZM62,95.57H40a1.63,1.63,0,0,1,0-3.26H62a1.63,1.63,0,0,1,0,3.26Zm-22-26H62a1.63,1.63,0,0,1,0,3.26H40a1.63,1.63,0,0,1,0-3.26ZM30.09,80.32H71.81a2.11,2.11,0,0,1,.26,4.22h-42a2.11,2.11,0,1,1-.26-4.22Z"/></svg>