<?xml version="1.0" encoding="utf-8"?>
<!-- Generator: Adobe Illustrator 27.4.1, SVG Export Plug-In . SVG Version: 6.00 Build 0)  -->
<svg version="1.1" id="Layer_1" xmlns="http://www.w3.org/2000/svg" xmlns:xlink="http://www.w3.org/1999/xlink" x="0px" y="0px"
	 viewBox="0 0 31.1 26.6" style="enable-background:new 0 0 31.1 26.6;" xml:space="preserve">
<style type="text/css">
	.st0{fill:#CECECE;}
</style>
<path class="st0" d="M25.5,0h3.4c0.3,0,0.6,0.3,0.6,0.6v21.5c0,0.3-0.3,0.6-0.6,0.6h-3.4c-0.3,0-0.6-0.3-0.6-0.6V0.6
	C25,0.3,25.2,0,25.5,0z"/>
<path class="st0" d="M18,11.5h3.4c0.3,0,0.6,0.3,0.6,0.6v10c0,0.3-0.3,0.6-0.6,0.6H18c-0.3,0-0.6-0.3-0.6-0.6v-10
	C17.4,11.7,17.7,11.5,18,11.5z"/>
<path class="st0" d="M10.4,6.3h3.4c0.3,0,0.6,0.3,0.6,0.6v15.2c0,0.3-0.3,0.6-0.6,0.6h-3.4c-0.3,0-0.6-0.3-0.6-0.6V6.8
	C9.8,6.5,10.1,6.3,10.4,6.3z"/>
<path class="st0" d="M2.8,17.9h3.4c0.3,0,0.6,0.3,0.6,0.6V22c0,0.3-0.3,0.6-0.6,0.6H2.8c-0.3,0-0.6-0.3-0.6-0.6v-3.6
	C2.2,18.2,2.5,17.9,2.8,17.9z"/>
<path class="st0" d="M0.3,25.4h30.5c0.2,0,0.3,0.1,0.3,0.3v0.6c0,0.2-0.1,0.3-0.3,0.3H0.3c-0.2,0-0.3-0.1-0.3-0.3v-0.6
	C0,25.5,0.1,25.4,0.3,25.4z"/>
</svg>
